<?xml version="1.0" standalone="no"?>
<!DOCTYPE svg PUBLIC "-//W3C//DTD SVG 20010904//EN"
 "http://www.w3.org/TR/2001/REC-SVG-20010904/DTD/svg10.dtd">
<svg version="1.0" xmlns="http://www.w3.org/2000/svg"
 width="98.000000pt" height="99.000000pt" viewBox="0 0 98.000000 99.000000"
 preserveAspectRatio="xMidYMid meet">
<metadata>
Created by potrace 1.16, written by Peter Selinger 2001-2019
</metadata>
<g transform="translate(0.000000,99.000000) scale(0.100000,-0.100000)"
fill="#000000" stroke="none">
<path d="M435 983 c-94 -12 -192 -61 -268 -132 -77 -72 -77 -66 0 -201 37 -66
73 -118 78 -116 10 2 264 434 265 449 0 7 -21 7 -75 0z"/>
<path d="M474 893 c-31 -54 -63 -108 -70 -120 -8 -12 -14 -25 -14 -28 0 -3
119 -5 265 -5 l266 0 -15 29 c-21 40 -95 114 -147 147 -49 31 -124 59 -186 69
l-41 6 -58 -98z"/>
<path d="M47 714 c-8 -16 -23 -56 -32 -88 -21 -73 -16 -225 10 -298 l17 -48
144 0 c79 0 144 2 144 5 0 9 -242 429 -256 444 -10 11 -15 9 -27 -15z"/>
<path d="M674 668 c13 -24 71 -124 129 -222 57 -99 109 -182 114 -183 6 -2 21
22 34 54 32 82 38 244 12 328 l-19 60 -147 3 -148 3 25 -43z"/>
<path d="M621 243 c-103 -179 -128 -229 -115 -232 31 -6 138 20 200 49 63 30
140 92 173 139 l20 27 -69 117 c-37 65 -70 120 -73 123 -2 3 -64 -98 -136
-223z"/>
<path d="M70 241 c0 -5 18 -31 39 -59 66 -83 197 -158 307 -176 l41 -7 68 118
c38 65 70 121 72 126 2 4 -115 7 -261 7 -153 0 -266 -4 -266 -9z"/>
</g>
</svg>
